@startuml
'https://plantuml.com/state-diagram
'todo consider extracting fundamental/technical to another state diagrams
'scale 350 width
[*] --> Preparation

state Preparation {
  state fork_state <<fork>>
  state join_state <<join>>
  [*] -> fork_state
  fork_state --> Technical
  fork_state --> Fundamental
  fork_state --> Other
  Technical --> join_state
  Fundamental --> join_state
  Other --> join_state
  state Technical {
     [*] -> LastCandlesGathered
     LastCandlesGathered --> BasicIndicatorsCalculated
     BasicIndicatorsCalculated --> StrategiesCalculated
     StrategiesCalculated --> AggregationOfStrategies
  }
  state Fundamental {
    [*] -> DataGathered
    DataGathered --> DataAnalyzed
    DataAnalyzed --> AggregationOfDataAnalysis
  }
}

join_state --> TotalAggregation

@enduml